<svg width="226" height="37" viewBox="0 0 226 37" version="1.1" xmlns="http://www.w3.org/2000/svg" xmlns:xlink="http://www.w3.org/1999/xlink">
<title>SmartAlumniLogo</title>
<desc>Created using Figma</desc>
<g id="Canvas" transform="translate(-420 1172)">
<g id="SmartAlumniLogo">
<g id="SmartAlumni">
<use xlink:href="#path0_fill" transform="translate(482 -1176)" fill="#FFFFFF"/>
</g>
<g id="SA Logo">
<g id="Fill 1" filter="url(#filter0_i)">
<use xlink:href="#path1_fill" transform="translate(427 -1167)" fill="#FFFFFF"/>
</g>
<g id="Fill 5" filter="url(#filter1_d)">
<use xlink:href="#path2_fill" transform="translate(434 -1162)" fill="#1E4679"/>
</g>
<g id="Fill 8" filter="url(#filter2_d)">
<use xlink:href="#path3_fill" transform="translate(434 -1151)" fill="#1E4679"/>
</g>
<g id="Fill 10">
<use xlink:href="#path4_fill" transform="translate(420 -1172)" fill="#FFFFFF"/>
</g>
<g id="Fill 13">
<use xlink:href="#path5_fill" transform="translate(471 -1172)" fill="#FFFFFF"/>
</g>
<g id="Fill 15">
<use xlink:href="#path6_fill" transform="translate(470 -1161)" fill="#FFFFFF"/>
</g>
</g>
</g>
</g>
<defs>
<filter id="filter0_i" filterUnits="userSpaceOnUse" x="424" y="-1169" width="46" height="37" color-interpolation-filters="sRGB">
<feFlood flood-opacity="0" result="BackgroundImageFix"/>
<feBlend mode="normal" in="SourceGraphic" in2="BackgroundImageFix" result="shape"/>
<feColorMatrix in="SourceAlpha" type="matrix" values="0 0 0 0 0 0 0 0 0 0 0 0 0 0 0 0 0 0 255 0" result="hardAlpha"/>
<feOffset dx="0" dy="1"/>
<feGaussianBlur stdDeviation="1.5"/>
<feComposite in2="hardAlpha" operator="arithmetic" k2="-1" k3="1"/>
<feColorMatrix type="matrix" values="0 0 0 0 0.134291 0 0 0 0 0.342689 0 0 0 0 0.590163 0 0 0 0.687953 0"/>
<feBlend mode="normal" in2="shape" result="effect1_innerShadow"/>
</filter>
<filter id="filter1_d" filterUnits="userSpaceOnUse" x="432" y="-1162" width="32" height="12" color-interpolation-filters="sRGB">
<feFlood flood-opacity="0" result="BackgroundImageFix"/>
<feColorMatrix in="SourceAlpha" type="matrix" values="0 0 0 0 0 0 0 0 0 0 0 0 0 0 0 0 0 0 255 0"/>
<feOffset dx="0" dy="2"/>
<feGaussianBlur stdDeviation="1"/>
<feColorMatrix type="matrix" values="0 0 0 0 0.113202 0 0 0 0 0.255836 0 0 0 0 0.425383 0 0 0 0.37166 0"/>
<feBlend mode="normal" in2="BackgroundImageFix" result="effect1_dropShadow"/>
<feBlend mode="normal" in="SourceGraphic" in2="effect1_dropShadow" result="shape"/>
</filter>
<filter id="filter2_d" filterUnits="userSpaceOnUse" x="432" y="-1151" width="32" height="12" color-interpolation-filters="sRGB">
<feFlood flood-opacity="0" result="BackgroundImageFix"/>
<feColorMatrix in="SourceAlpha" type="matrix" values="0 0 0 0 0 0 0 0 0 0 0 0 0 0 0 0 0 0 255 0"/>
<feOffset dx="0" dy="2"/>
<feGaussianBlur stdDeviation="1"/>
<feColorMatrix type="matrix" values="0 0 0 0 0.113202 0 0 0 0 0.255836 0 0 0 0 0.425383 0 0 0 0.37166 0"/>
<feBlend mode="normal" in2="BackgroundImageFix" result="effect1_dropShadow"/>
<feBlend mode="normal" in="SourceGraphic" in2="effect1_dropShadow" result="shape"/>
</filter>
<path id="path0_fill" d="M 1.61969 26.582L 3.7525 26.582C 3.88531 27.4648 4.34235 28.168 5.1236 28.6914C 5.90485 29.2148 6.89703 29.4766 8.10016 29.4766C 9.24078 29.4766 10.1822 29.2031 10.9244 28.6562C 11.6744 28.1016 12.0494 27.4062 12.0494 26.5703C 12.0494 25.8516 11.7759 25.2578 11.2291 24.7891C 10.6822 24.3125 9.82672 23.9258 8.66266 23.6289L 6.49469 23.0664C 4.96344 22.6836 3.85016 22.1289 3.15485 21.4023C 2.45953 20.6758 2.11188 19.7109 2.11188 18.5078C 2.11188 17.0703 2.65875 15.9102 3.7525 15.0273C 4.85406 14.1367 6.29938 13.6914 8.08844 13.6914C 9.72125 13.6914 11.0884 14.1289 12.19 15.0039C 13.2916 15.8789 13.8853 17 13.9713 18.3672L 11.8502 18.3672C 11.7017 17.5 11.2877 16.8242 10.608 16.3398C 9.9361 15.8477 9.07281 15.6016 8.01813 15.6016C 6.89313 15.6016 5.98688 15.8633 5.29938 16.3867C 4.61969 16.9023 4.27985 17.5859 4.27985 18.4375C 4.27985 19.1016 4.52985 19.6406 5.02985 20.0547C 5.53766 20.4688 6.3736 20.8242 7.53766 21.1211L 9.30719 21.5898C 11.0572 22.0273 12.3111 22.6133 13.0689 23.3477C 13.8345 24.082 14.2173 25.0703 14.2173 26.3125C 14.2173 27.8672 13.647 29.1055 12.5064 30.0273C 11.3658 30.9414 9.83063 31.3984 7.90094 31.3984C 6.11188 31.3984 4.64313 30.9609 3.49469 30.0859C 2.35406 29.2109 1.72906 28.043 1.61969 26.582ZM 19.3952 31L 19.3952 18.3672L 21.317 18.3672L 21.317 20.3594L 21.5045 20.3594C 21.7936 19.6562 22.2428 19.1133 22.8522 18.7305C 23.4616 18.3398 24.1881 18.1445 25.0319 18.1445C 25.86 18.1445 26.5709 18.3438 27.1647 18.7422C 27.7663 19.1406 28.2194 19.6797 28.5241 20.3594L 28.7116 20.3594C 29.0553 19.6797 29.5709 19.1406 30.2584 18.7422C 30.9459 18.3438 31.7194 18.1445 32.5788 18.1445C 33.8678 18.1445 34.86 18.5039 35.5553 19.2227C 36.2506 19.9336 36.5983 20.9492 36.5983 22.2695L 36.5983 31L 34.5827 31L 34.5827 22.7383C 34.5827 20.8867 33.6959 19.9609 31.9225 19.9609C 31.0631 19.9609 30.36 20.2422 29.8131 20.8047C 29.2663 21.3672 28.9928 22.0586 28.9928 22.8789L 28.9928 31L 26.9772 31L 26.9772 22.4219C 26.9772 21.6719 26.735 21.0742 26.2506 20.6289C 25.7741 20.1836 25.1373 19.9609 24.3405 19.9609C 23.5202 19.9609 22.8248 20.2734 22.2545 20.8984C 21.692 21.5234 21.4108 22.2812 21.4108 23.1719L 21.4108 31L 19.3952 31ZM 46.0886 29.4531C 47.1277 29.4531 47.987 29.1523 48.6667 28.5508C 49.3542 27.9492 49.698 27.1953 49.698 26.2891L 49.698 25.1289L 46.2995 25.3516C 45.3464 25.4141 44.6472 25.6133 44.2019 25.9492C 43.7566 26.2852 43.5339 26.7734 43.5339 27.4141C 43.5339 28.0469 43.7722 28.5469 44.2488 28.9141C 44.7253 29.2734 45.3386 29.4531 46.0886 29.4531ZM 45.7136 31.2227C 44.4714 31.2227 43.448 30.8828 42.6433 30.2031C 41.8464 29.5156 41.448 28.6016 41.448 27.4609C 41.448 26.3359 41.8464 25.4531 42.6433 24.8125C 43.4402 24.1719 44.5769 23.8086 46.0534 23.7227L 49.698 23.5L 49.698 22.3516C 49.698 21.5703 49.4558 20.9727 48.9714 20.5586C 48.487 20.1445 47.7761 19.9375 46.8386 19.9375C 46.0808 19.9375 45.4519 20.0742 44.9519 20.3477C 44.4519 20.6211 44.1316 21.0078 43.9909 21.5078L 41.9519 21.5078C 42.0847 20.5 42.6042 19.6875 43.5105 19.0703C 44.4245 18.4531 45.5573 18.1445 46.9089 18.1445C 48.4402 18.1445 49.6238 18.5156 50.4597 19.2578C 51.2956 20 51.7136 21.0312 51.7136 22.3516L 51.7136 31L 49.7917 31L 49.7917 29.1367L 49.6042 29.1367C 49.198 29.8086 48.6589 30.3242 47.987 30.6836C 47.3152 31.043 46.5573 31.2227 45.7136 31.2227ZM 57.3602 31L 57.3602 18.3672L 59.282 18.3672L 59.282 20.2422L 59.4695 20.2422C 59.657 19.625 60.0789 19.1211 60.7352 18.7305C 61.3914 18.3398 62.1375 18.1445 62.9734 18.1445C 63.3563 18.1445 63.6922 18.1641 63.9813 18.2031L 63.9813 20.2188C 63.7078 20.1406 63.2781 20.1016 62.6922 20.1016C 61.7313 20.1016 60.9383 20.3906 60.3133 20.9688C 59.6883 21.5469 59.3758 22.2812 59.3758 23.1719L 59.3758 31L 57.3602 31ZM 69.8036 15.2148L 71.8192 15.2148L 71.8192 18.3672L 74.7489 18.3672L 74.7489 20.0547L 71.8192 20.0547L 71.8192 27.2031C 71.8192 27.9453 71.9677 28.4844 72.2645 28.8203C 72.5614 29.1562 73.038 29.3242 73.6942 29.3242C 73.9677 29.3242 74.2723 29.3086 74.6083 29.2773L 74.6083 30.9766C 74.163 31.0547 73.7763 31.0938 73.4481 31.0938C 72.1434 31.0938 71.2098 30.832 70.6473 30.3086C 70.0848 29.7852 69.8036 28.9219 69.8036 27.7188L 69.8036 20.0547L 67.6825 20.0547L 67.6825 18.3672L 69.8036 18.3672L 69.8036 15.2148ZM 90.8486 31L 89.1494 26.1602L 82.4228 26.1602L 80.7236 31L 78.5088 31L 84.7431 14.0898L 86.8291 14.0898L 93.0634 31L 90.8486 31ZM 85.6923 16.8203L 83.0439 24.3672L 88.5283 24.3672L 85.8798 16.8203L 85.6923 16.8203ZM 97.8077 31L 97.8077 13.3516L 99.8233 13.3516L 99.8233 31L 97.8077 31ZM 116.11 18.3672L 116.11 31L 114.189 31L 114.189 29.0195L 114.001 29.0195C 113.689 29.7227 113.181 30.2656 112.478 30.6484C 111.775 31.0312 110.939 31.2227 109.97 31.2227C 108.556 31.2227 107.462 30.8164 106.689 30.0039C 105.923 29.1914 105.54 28.0391 105.54 26.5469L 105.54 18.3672L 107.556 18.3672L 107.556 26.0547C 107.556 27.1875 107.798 28.0273 108.282 28.5742C 108.775 29.1133 109.525 29.3828 110.532 29.3828C 111.65 29.3828 112.521 29.0703 113.146 28.4453C 113.778 27.8203 114.095 26.9531 114.095 25.8438L 114.095 18.3672L 116.11 18.3672ZM 121.827 31L 121.827 18.3672L 123.749 18.3672L 123.749 20.3594L 123.937 20.3594C 124.226 19.6562 124.675 19.1133 125.284 18.7305C 125.894 18.3398 126.62 18.1445 127.464 18.1445C 128.292 18.1445 129.003 18.3438 129.597 18.7422C 130.198 19.1406 130.652 19.6797 130.956 20.3594L 131.144 20.3594C 131.488 19.6797 132.003 19.1406 132.691 18.7422C 133.378 18.3438 134.152 18.1445 135.011 18.1445C 136.3 18.1445 137.292 18.5039 137.988 19.2227C 138.683 19.9336 139.03 20.9492 139.03 22.2695L 139.03 31L 137.015 31L 137.015 22.7383C 137.015 20.8867 136.128 19.9609 134.355 19.9609C 133.495 19.9609 132.792 20.2422 132.245 20.8047C 131.698 21.3672 131.425 22.0586 131.425 22.8789L 131.425 31L 129.409 31L 129.409 22.4219C 129.409 21.6719 129.167 21.0742 128.683 20.6289C 128.206 20.1836 127.57 19.9609 126.773 19.9609C 125.952 19.9609 125.257 20.2734 124.687 20.8984C 124.124 21.5234 123.843 22.2812 123.843 23.1719L 123.843 31L 121.827 31ZM 144.63 31L 144.63 18.3672L 146.552 18.3672L 146.552 20.3594L 146.74 20.3594C 147.06 19.6562 147.572 19.1133 148.275 18.7305C 148.978 18.3398 149.81 18.1445 150.771 18.1445C 152.185 18.1445 153.275 18.5508 154.04 19.3633C 154.806 20.168 155.189 21.3203 155.189 22.8203L 155.189 31L 153.173 31L 153.173 23.3125C 153.173 22.1797 152.927 21.3398 152.435 20.793C 151.95 20.2383 151.204 19.9609 150.197 19.9609C 149.087 19.9609 148.216 20.2773 147.583 20.9102C 146.958 21.543 146.646 22.4141 146.646 23.5234L 146.646 31L 144.63 31ZM 160.847 31L 160.847 18.3672L 162.863 18.3672L 162.863 31L 160.847 31ZM 162.851 15.3906C 162.577 15.6641 162.245 15.8008 161.855 15.8008C 161.464 15.8008 161.132 15.6641 160.859 15.3906C 160.585 15.1094 160.449 14.7773 160.449 14.3945C 160.449 14.0117 160.585 13.6836 160.859 13.4102C 161.132 13.1289 161.464 12.9883 161.855 12.9883C 162.245 12.9883 162.577 13.1289 162.851 13.4102C 163.124 13.6836 163.261 14.0117 163.261 14.3945C 163.261 14.7773 163.124 15.1094 162.851 15.3906Z"/>
<path id="path1_fill" fill-rule="evenodd" d="M 32.2767 0L 7.72332 0C 3.45771 0 0 3.51069 0 7.84165L 0 21.3357C 0 25.6667 3.45771 29.1774 7.72332 29.1774L 32.2767 29.1774C 32.5512 29.1774 32.8187 29.1679 33.0822 29.1758L 32.9887 29.1758C 33.3809 29.1758 34.4352 29.0927 35.1316 29.8322C 35.3234 30.0032 35.5098 30.1805 35.6907 30.3642L 36.7287 31.4236C 37.9335 32.6524 40 31.7863 40 30.0523L 40 21.3357L 40 14.7815L 40 7.84165C 40 3.51069 36.5423 0 32.2767 0"/>
<path id="path2_fill" fill-rule="evenodd" d="M 3.52116 8L 27.2843 8C 27.6795 8 28 7.69158 28 7.31117L 28 0.688832C 28 0.308421 27.6795 0 27.2843 0L 3.52116 0C 1.57633 0 0 1.5171 0 3.38884L 0 4.61116C 0 6.4829 1.57633 8 3.52116 8"/>
<path id="path3_fill" fill-rule="evenodd" d="M 24.4788 8L 0.715728 8C 0.320463 8 0 7.69158 0 7.31117L 0 0.688832C 0 0.308421 0.320463 0 0.715728 0L 24.4788 0C 26.4237 0 28 1.5171 28 3.38884L 28 4.61116C 28 6.4829 26.4237 8 24.4788 8"/>
<path id="path4_fill" fill-rule="evenodd" d="M 53.2587 1L 0.741305 1C 0.331718 1 0 0.852237 0 0.669788L 0 0.330212C 0 0.147763 0.331718 0 0.741305 0L 53.2587 0C 53.6683 0 54 0.147763 54 0.330212L 54 0.669788C 54 0.852237 53.6683 1 53.2587 1"/>
<path id="path5_fill" fill-rule="evenodd" d="M 0 11L 1 11L 1 0L 0 0L 0 11Z"/>
<path id="path6_fill" fill-rule="evenodd" d="M 0.129512 4C 0.0578049 4 0 3.92854 0 3.83989L 0 1.62732C 0 0.728177 0.589024 0 1.31561 0L 1.68366 0C 2.41098 0 3 0.728177 3 1.62732L 3 3.83989C 3 3.92854 2.9422 4 2.87049 4L 0.129512 4Z"/>
</defs>
</svg>
